<svg width="200" height="200" viewBox="0 0 200 200" fill="none" xmlns="http://www.w3.org/2000/svg">
<rect x="25" y="25" width="150" height="150" rx="50" fill="#426B53"/>
<path d="M94.4545 150.136C89.1515 150.136 84.3485 148.773 80.0455 146.045C75.7727 143.288 72.3788 139.242 69.8636 133.909C67.3788 128.545 66.1364 121.97 66.1364 114.182C66.1364 106.182 67.4242 99.5303 70 94.2273C72.5758 88.8939 76 84.9091 80.2727 82.2727C84.5758 79.6061 89.2879 78.2727 94.4091 78.2727C98.3182 78.2727 101.576 78.9394 104.182 80.2727C106.818 81.5758 108.939 83.2121 110.545 85.1818C112.182 87.1212 113.424 89.0303 114.273 90.9091H114.864V55.9091H134.182V149H115.091V137.818H114.273C113.364 139.758 112.076 141.682 110.409 143.591C108.773 145.47 106.636 147.03 104 148.273C101.394 149.515 98.2121 150.136 94.4545 150.136ZM100.591 134.727C103.712 134.727 106.348 133.879 108.5 132.182C110.682 130.455 112.348 128.045 113.5 124.955C114.682 121.864 115.273 118.242 115.273 114.091C115.273 109.939 114.697 106.333 113.545 103.273C112.394 100.212 110.727 97.8485 108.545 96.1818C106.364 94.5151 103.712 93.6818 100.591 93.6818C97.4091 93.6818 94.7273 94.5455 92.5455 96.2727C90.3636 98 88.7121 100.394 87.5909 103.455C86.4697 106.515 85.9091 110.061 85.9091 114.091C85.9091 118.152 86.4697 121.742 87.5909 124.864C88.7424 127.955 90.3939 130.379 92.5455 132.136C94.7273 133.864 97.4091 134.727 100.591 134.727Z" fill="white"/>
</svg>
